<svg width="892" height="484" xmlns="http://www.w3.org/2000/svg" xmlns:xlink="http://www.w3.org/1999/xlink" overflow="hidden"><defs><clipPath id="clip0"><rect x="114" y="58" width="892" height="484"/></clipPath></defs><g clip-path="url(#clip0)" transform="translate(-114 -58)"><path d="M119.5 72.8337C119.5 65.4697 125.47 59.5001 132.834 59.5001L992.166 59.5001C999.53 59.5001 1005.5 65.4697 1005.5 72.8337L1005.5 126.166C1005.5 133.53 999.53 139.5 992.166 139.5L132.834 139.5C125.47 139.5 119.5 133.53 119.5 126.166Z" stroke="#A6A6A6" stroke-width="1.33333" stroke-miterlimit="8" fill="#D9D9D9" fill-rule="evenodd"/><text font-family="DengXian,DengXian_MSFontService,sans-serif" font-weight="400" font-size="24" transform="translate(512.026 96)">Client API<tspan font-size="19" x="-245.667" y="24">(</tspan><tspan font-size="19" x="-240.167" y="24">operators &lt;Create/update/Delete/List/Get/Watch&gt; for Kubernetes kinds)</tspan></text><path d="M190.5 176.833C190.5 169.47 196.47 163.5 203.833 163.5L827.167 163.5C834.531 163.5 840.5 169.47 840.5 176.833L840.5 230.167C840.5 237.53 834.531 243.5 827.167 243.5L203.833 243.5C196.47 243.5 190.5 237.53 190.5 230.167Z" stroke="#A6A6A6" stroke-width="1.33333" stroke-miterlimit="8" fill="#D9D9D9" fill-rule="evenodd"/><text font-family="DengXian,DengXian_MSFontService,sans-serif" font-weight="400" font-size="24" transform="translate(463.329 200)">Convertor<tspan font-size="19" x="-164.413" y="24">(convert</tspan><tspan font-size="19" x="-93.58" y="24">operator</tspan><tspan font-size="19" x="-18.7467" y="24">and</tspan><tspan font-size="19" x="16.7534" y="24">kind</tspan><tspan font-size="19" x="55.92" y="24">to</tspan><tspan font-size="19" x="77.7533" y="24">metadata,</tspan><tspan font-size="19" x="163.087" y="24">and</tspan><tspan font-size="19" x="198.587" y="24">ge</tspan><tspan font-size="19" x="218.92" y="24">t URL)</tspan></text><path d="M906.5 175.875C906.5 182.71 928.662 188.25 956 188.25 983.338 188.25 1005.5 182.71 1005.5 175.875L1005.5 440.125C1005.5 446.96 983.338 452.5 956 452.5 928.662 452.5 906.5 446.96 906.5 440.125Z" fill="#D9D9D9" fill-rule="evenodd"/><path d="M906.5 175.875C906.5 169.041 928.662 163.5 956 163.5 983.338 163.5 1005.5 169.041 1005.5 175.875 1005.5 182.71 983.338 188.25 956 188.25 928.662 188.25 906.5 182.71 906.5 175.875Z" fill="#E8E8E8" fill-rule="evenodd"/><path d="M1005.5 175.875C1005.5 182.71 983.338 188.25 956 188.25 928.662 188.25 906.5 182.71 906.5 175.875 906.5 169.041 928.662 163.5 956 163.5 983.338 163.5 1005.5 169.041 1005.5 175.875L1005.5 440.125C1005.5 446.96 983.338 452.5 956 452.5 928.662 452.5 906.5 446.96 906.5 440.125L906.5 175.875" stroke="#BFBFBF" stroke-width="1.33333" stroke-miterlimit="8" fill="none" fill-rule="evenodd"/><text font-family="DengXian,DengXian_MSFontService,sans-serif" font-weight="400" font-size="24" transform="matrix(6.12323e-17 1 -1 6.12323e-17 960.042 264)">Rule Base<tspan font-size="19" x="-34" y="24">(metadata </tspan><tspan font-size="19" x="53" y="24">←→ </tspan><tspan font-size="19" x="96" y="24">URL</tspan><tspan font-size="19" x="128" y="24">)</tspan></text><path d="M190.5 281.834C190.5 274.47 196.47 268.5 203.833 268.5L827.167 268.5C834.531 268.5 840.5 274.47 840.5 281.834L840.5 335.167C840.5 342.53 834.531 348.5 827.167 348.5L203.833 348.5C196.47 348.5 190.5 342.53 190.5 335.167Z" stroke="#A6A6A6" stroke-width="1.33333" stroke-miterlimit="8" fill="#D9D9D9" fill-rule="evenodd"/><text font-family="DengXian,DengXian_MSFontService,sans-serif" font-weight="400" font-size="24" transform="translate(473.833 304)">Registry<tspan font-size="19" x="-141.667" y="24">(get</tspan><tspan font-size="19" x="-104.667" y="24">metadata</tspan><tspan font-size="19" x="-23.5" y="24">by</tspan><tspan font-size="19" x="1" y="24">invoking</tspan><tspan font-size="19" x="74" y="24">URL, and</tspan><tspan font-size="19" x="150.833" y="24">record</tspan><tspan font-size="19" x="208.167" y="24">i</tspan><tspan font-size="19" x="212.333" y="24">t</tspan><tspan font-size="19" x="218.333" y="24">)</tspan></text><path d="M190.5 385.834C190.5 378.47 196.47 372.5 203.833 372.5L531.167 372.5C538.53 372.5 544.5 378.47 544.5 385.834L544.5 439.167C544.5 446.53 538.53 452.5 531.167 452.5L203.833 452.5C196.47 452.5 190.5 446.53 190.5 439.167Z" stroke="#A6A6A6" stroke-width="1.33333" stroke-miterlimit="8" fill="#D9D9D9" fill-rule="evenodd"/><text font-family="DengXian,DengXian_MSFontService,sans-serif" font-weight="400" font-size="24" transform="translate(321.706 408)">Extractor<tspan font-size="19" x="-118.167" y="24">(get URL of Kubernetes</tspan><tspan font-size="19" x="68" y="24">-</tspan><tspan font-size="19" x="77.3333" y="24">inside </tspan><tspan font-size="19" x="129.167" y="24">rescurces</tspan><tspan font-size="19" x="203.833" y="24">)</tspan></text><path d="M547.5 385.834C547.5 378.47 553.47 372.5 560.833 372.5L888.167 372.5C895.53 372.5 901.5 378.47 901.5 385.834L901.5 439.167C901.5 446.53 895.53 452.5 888.167 452.5L560.833 452.5C553.47 452.5 547.5 446.53 547.5 439.167Z" stroke="#A6A6A6" stroke-width="1.33333" stroke-miterlimit="8" fill="#D9D9D9" fill-rule="evenodd"/><text font-family="DengXian,DengXian_MSFontService,sans-serif" font-weight="400" font-size="24" transform="translate(683.702 408)">Listener<tspan font-size="19" x="-100" y="24">(get URL of self</tspan><tspan font-size="19" x="22.5" y="24">-</tspan><tspan font-size="19" x="31.8333" y="24">defined resources</tspan><tspan font-size="19" x="174.5" y="24">)</tspan></text><path d="M840.5 202 900.439 202 900.439 205 840.5 205ZM898.939 199 907.939 203.5 898.939 208Z"/><text font-family="DengXian,DengXian_MSFontService,sans-serif" font-weight="400" font-size="19" transform="translate(850.196 189)">query</text><path d="M841.5 307 901.439 307 901.439 310 841.5 310ZM899.939 304 908.939 308.5 899.939 313Z"/><text font-family="DengXian,DengXian_MSFontService,sans-serif" font-weight="400" font-size="19" transform="translate(851.165 294)">record</text><path d="M0.666667-2.87158e-06 0.666743 17.7071-0.66659 17.7071-0.666667 2.87158e-06ZM4.00007 16.3737 0.000104987 24.3738-3.99993 16.3738Z" transform="matrix(1 0 0 -1 257.5 163.874)"/><text font-family="DengXian,DengXian_MSFontService,sans-serif" font-weight="700" font-size="15" transform="translate(267.173 155)">response</text><path d="M463.167 139.5 463.167 159.268 461.833 159.268 461.833 139.5ZM466.5 157.935 462.5 165.935 458.5 157.935Z"/><text font-family="DengXian,DengXian_MSFontService,sans-serif" font-weight="700" font-size="15" transform="translate(401.315 155)">request</text><path d="M0.666667-2.87158e-06 0.666743 17.7071-0.66659 17.7071-0.666667 2.87158e-06ZM4.00007 16.3737 0.000104987 24.3738-3.99993 16.3738Z" transform="matrix(1 0 0 -1 365.5 371.874)"/><text font-family="DengXian,DengXian_MSFontService,sans-serif" font-weight="700" font-size="15" transform="translate(375.584 362)">dispatch</text><path d="M367.167 452.5 367.167 472.268 365.833 472.268 365.833 452.5ZM370.5 470.935 366.5 478.935 362.5 470.935Z"/><text font-family="DengXian,DengXian_MSFontService,sans-serif" font-weight="700" font-size="15" transform="translate(376.481 470)">invoke</text><path d="M0.666667-2.87158e-06 0.666743 17.7071-0.66659 17.7071-0.666667 2.87158e-06ZM4.00007 16.3737 0.000104987 24.3738-3.99993 16.3738Z" transform="matrix(1 0 0 -1 724.5 371.874)"/><text font-family="DengXian,DengXian_MSFontService,sans-serif" font-weight="700" font-size="15" transform="translate(657.42 363)">dispatch</text><path d="M721.167 452.5 721.167 472.268 719.833 472.268 719.833 452.5ZM724.5 470.935 720.5 478.935 716.5 470.935Z"/><text font-family="DengXian,DengXian_MSFontService,sans-serif" font-weight="700" font-size="15" transform="translate(659.804 470)">request</text><path d="M119.5 489.667C119.5 484.052 124.052 479.5 129.667 479.5L995.333 479.5C1000.95 479.5 1005.5 484.052 1005.5 489.667L1005.5 530.333C1005.5 535.948 1000.95 540.5 995.333 540.5L129.667 540.5C124.052 540.5 119.5 535.948 119.5 530.333Z" stroke="#A6A6A6" stroke-width="1.33333" stroke-miterlimit="8" fill="#D9D9D9" fill-rule="evenodd"/><text font-family="DengXian,DengXian_MSFontService,sans-serif" font-weight="400" font-size="24" transform="translate(460.526 517)">Kubernetes <tspan font-size="24" x="122.667" y="0">r</tspan><tspan font-size="24" x="130.833" y="0">untime</tspan></text><path d="M163 145.666 163 472.196 161 472.196 161 145.666ZM158 147 162 139 166 147ZM166 470.863 162 478.863 158 470.863Z"/><text font-family="DengXian,DengXian_MSFontService,sans-serif" font-weight="400" font-size="24" transform="matrix(6.12323e-17 1 -1 6.12323e-17 136.8 275)">invoke</text></g></svg>